<svg width="24" height="25" viewBox="0 0 24 25" fill="none" xmlns="http://www.w3.org/2000/svg">
<path fill-rule="evenodd" clip-rule="evenodd" d="M12 4.03516C10.0478 4.03516 8.24816 4.19616 6.80371 4.38693C5.50372 4.55862 4.52346 5.53888 4.35177 6.83886C4.16101 8.28332 4 10.0829 4 12.0352C4 13.9874 4.161 15.787 4.35177 17.2315C4.52346 18.5314 5.50372 19.5117 6.80371 19.6834C8.24816 19.8742 10.0478 20.0352 12 20.0352C13.9522 20.0352 15.7518 19.8742 17.1963 19.6834C18.4963 19.5117 19.4765 18.5314 19.6482 17.2315C19.839 15.787 20 13.9874 20 12.0352C20 10.0829 19.839 8.28332 19.6482 6.83886C19.4765 5.53888 18.4963 4.55862 17.1963 4.38693C15.7518 4.19616 13.9522 4.03516 12 4.03516ZM6.54184 2.40415C4.34504 2.69428 2.65912 4.3802 2.36899 6.577C2.16953 8.08724 2 9.97643 2 12.0352C2 14.0939 2.16953 15.9831 2.36899 17.4933C2.65912 19.6901 4.34504 21.376 6.54184 21.6662C8.05208 21.8656 9.94127 22.0352 12 22.0352C14.0587 22.0352 15.9479 21.8656 17.4582 21.6662C19.655 21.376 21.3409 19.6901 21.631 17.4933C21.8305 15.9831 22 14.0939 22 12.0352C22 9.97643 21.8305 8.08724 21.631 6.577C21.3409 4.3802 19.655 2.69428 17.4582 2.40415C15.9479 2.20469 14.0587 2.03516 12 2.03516C9.94127 2.03516 8.05208 2.20469 6.54184 2.40415Z" fill="#777E91"/>
<path fill-rule="evenodd" clip-rule="evenodd" d="M12 17.0352C12.5523 17.0352 13 16.5874 13 16.0352V13.0352H16C16.5523 13.0352 17 12.5874 17 12.0352C17 11.4829 16.5523 11.0352 16 11.0352H13V8.03516C13 7.48287 12.5523 7.03516 12 7.03516C11.4477 7.03516 11 7.48287 11 8.03516V11.0352H8C7.44772 11.0352 7 11.4829 7 12.0352C7 12.5874 7.44771 13.0352 8 13.0352H11V16.0352C11 16.5874 11.4477 17.0352 12 17.0352Z" fill="#777E91"/>
</svg>
